{
    "asset" : {
        "generator" : "Khronos glTF Blender I/O v3.3.27",
        "version" : "2.0"
    },
    "scene" : 0,
    "scenes" : [
        {
            "extras" : {
                "automirror" : {}
            },
            "name" : "Scene",
            "nodes" : [
                0
            ]
        }
    ],
    "nodes" : [
        {
            "extras" : {
                "sparkar_optimization" : {
                    "InvertedReducePercentage" : 0.0
                },
                "ant_landscape" : {},
                "spark_blender_addon" : 1
            },
            "mesh" : 0,
            "name" : "GafasHololens",
            "translation" : [
                0.004174023866653442,
                0.032470449805259705,
                0.016431011259555817
            ]
        }
    ],
    "materials" : [
        {
            "doubleSided" : true,
            "name" : "Gafas",
            "normalTexture" : {
                "index" : 0
            },
            "pbrMetallicRoughness" : {
                "baseColorTexture" : {
                    "index" : 1
                },
                "metallicFactor" : 0,
                "metallicRoughnessTexture" : {
                    "index" : 2
                }
            }
        },
        {
            "alphaMode" : "BLEND",
            "doubleSided" : true,
            "name" : "Vidrio",
            "pbrMetallicRoughness" : {
                "baseColorFactor" : [
                    0.004835412371903658,
                    0.0008980896091088653,
                    0.01341086532920599,
                    0.6744638681411743
                ],
                "metallicFactor" : 0,
                "roughnessFactor" : 0.5
            }
        },
        {
            "doubleSided" : true,
            "name" : "Blanco",
            "pbrMetallicRoughness" : {
                "metallicFactor" : 0,
                "roughnessFactor" : 0.5
            }
        }
    ],
    "meshes" : [
        {
            "name" : "Plane.007",
            "primitives" : [
                {
                    "attributes" : {
                        "POSITION" : 0,
                        "NORMAL" : 1,
                        "TEXCOORD_0" : 2
                    },
                    "indices" : 3,
                    "material" : 0
                },
                {
                    "attributes" : {
                        "POSITION" : 4,
                        "NORMAL" : 5,
                        "TEXCOORD_0" : 6
                    },
                    "indices" : 7,
                    "material" : 1
                },
                {
                    "attributes" : {
                        "POSITION" : 8,
                        "NORMAL" : 9,
                        "TEXCOORD_0" : 10
                    },
                    "indices" : 11,
                    "material" : 2
                }
            ]
        }
    ],
    "textures" : [
        {
            "sampler" : 0,
            "source" : 0
        },
        {
            "sampler" : 0,
            "source" : 1
        },
        {
            "sampler" : 0,
            "source" : 2
        }
    ],
    "images" : [
        {
            "bufferView" : 4,
            "mimeType" : "image/png",
            "name" : "Gafas_Normal_OpenGL"
        },
        {
            "bufferView" : 5,
            "mimeType" : "image/png",
            "name" : "Gafas_Base_Color"
        },
        {
            "bufferView" : 6,
            "mimeType" : "image/png",
            "name" : "Gafas_Roughness"
        }
    ],
    "accessors" : [
        {
            "bufferView" : 0,
            "componentType" : 5126,
            "count" : 2164,
            "max" : [
                0.06551048159599304,
                0.0487295538187027,
                0.1040281355381012
            ],
            "min" : [
                -0.06551047414541245,
                -0.019747335463762283,
                -0.11372773349285126
            ],
            "type" : "VEC3"
        },
        {
            "bufferView" : 1,
            "componentType" : 5126,
            "count" : 2164,
            "type" : "VEC3"
        },
        {
            "bufferView" : 2,
            "componentType" : 5126,
            "count" : 2164,
            "type" : "VEC2"
        },
        {
            "bufferView" : 3,
            "componentType" : 5123,
            "count" : 7290,
            "type" : "SCALAR"
        },
        {
            "bufferView" : 7,
            "componentType" : 5126,
            "count" : 122,
            "max" : [
                0.05707402154803276,
                -0.0004236847162246704,
                0.10376445949077606
            ],
            "min" : [
                -0.05707400664687157,
                -0.0331643745303154,
                0.07891549170017242
            ],
            "type" : "VEC3"
        },
        {
            "bufferView" : 8,
            "componentType" : 5126,
            "count" : 122,
            "type" : "VEC3"
        },
        {
            "bufferView" : 9,
            "componentType" : 5126,
            "count" : 122,
            "type" : "VEC2"
        },
        {
            "bufferView" : 10,
            "componentType" : 5123,
            "count" : 636,
            "type" : "SCALAR"
        },
        {
            "bufferView" : 11,
            "componentType" : 5126,
            "count" : 704,
            "max" : [
                0.04494786262512207,
                -0.005787082016468048,
                0.10009387880563736
            ],
            "min" : [
                -0.044947847723960876,
                -0.030300036072731018,
                0.0818159431219101
            ],
            "type" : "VEC3"
        },
        {
            "bufferView" : 12,
            "componentType" : 5126,
            "count" : 704,
            "type" : "VEC3"
        },
        {
            "bufferView" : 13,
            "componentType" : 5126,
            "count" : 704,
            "type" : "VEC2"
        },
        {
            "bufferView" : 14,
            "componentType" : 5123,
            "count" : 1056,
            "type" : "SCALAR"
        }
    ],
    "bufferViews" : [
        {
            "buffer" : 0,
            "byteLength" : 25968,
            "byteOffset" : 0,
            "target" : 34962
        },
        {
            "buffer" : 0,
            "byteLength" : 25968,
            "byteOffset" : 25968,
            "target" : 34962
        },
        {
            "buffer" : 0,
            "byteLength" : 17312,
            "byteOffset" : 51936,
            "target" : 34962
        },
        {
            "buffer" : 0,
            "byteLength" : 14580,
            "byteOffset" : 69248,
            "target" : 34963
        },
        {
            "buffer" : 0,
            "byteLength" : 80991,
            "byteOffset" : 83828
        },
        {
            "buffer" : 0,
            "byteLength" : 21747,
            "byteOffset" : 164820
        },
        {
            "buffer" : 0,
            "byteLength" : 50193,
            "byteOffset" : 186568
        },
        {
            "buffer" : 0,
            "byteLength" : 1464,
            "byteOffset" : 236764,
            "target" : 34962
        },
        {
            "buffer" : 0,
            "byteLength" : 1464,
            "byteOffset" : 238228,
            "target" : 34962
        },
        {
            "buffer" : 0,
            "byteLength" : 976,
            "byteOffset" : 239692,
            "target" : 34962
        },
        {
            "buffer" : 0,
            "byteLength" : 1272,
            "byteOffset" : 240668,
            "target" : 34963
        },
        {
            "buffer" : 0,
            "byteLength" : 8448,
            "byteOffset" : 241940,
            "target" : 34962
        },
        {
            "buffer" : 0,
            "byteLength" : 8448,
            "byteOffset" : 250388,
            "target" : 34962
        },
        {
            "buffer" : 0,
            "byteLength" : 5632,
            "byteOffset" : 258836,
            "target" : 34962
        },
        {
            "buffer" : 0,
            "byteLength" : 2112,
            "byteOffset" : 264468,
            "target" : 34963
        }
    ],
    "samplers" : [
        {
            "magFilter" : 9729,
            "minFilter" : 9987
        }
    ],
    "buffers" : [
        {
            "byteLength" : 266580,
            "uri" : "data:application/octet-stream;base64,"
        }
    ]
}
